<svg id="Capa_1" data-name="Capa 1" xmlns="http://www.w3.org/2000/svg" viewBox="0 0 512.46 136.88">
  <defs>
    <style>
      .cls-1 {
        fill: #fff;
      }
    </style>
  </defs>
  <title>WAV logo</title>
  <g>
    <path class="cls-1" d="M322.27,44.7l3.38,65.08q.27,4.39.29,9.16c0,3.18-.05,6.82-.17,10.94q3-7.29,4.94-12c1.32-3.14,2.53-5.84,3.63-8.08L364.25,44.7h37.68l-67.8,136.88H299.54L295,123.15q-.29-3.09-.53-12.06-.08-4-.16-6.27-.89,2-2.48,5.52-4.08,9.06-6,12.81l-29.06,58.43H222.12L212.6,44.7h37.68l1.8,65.45c0,3.37,0,6.73,0,10.1s-.06,6.82-.2,10.38q1.68-3.93,3.58-8.23t5.54-12.25L292.17,44.7Z" transform="translate(-158.92 -44.7)"/>
    <path class="cls-1" d="M366.29,181.58,442.6,44.7h46.75l18.22,136.88H470.45l-1.71-24.49h-53l-12.31,24.49Zm63.14-51.14h37.12l-4.34-45.16q-.21-2.06-.36-6.64t-.4-11.78q-2.28,5.06-4.43,9.63t-4.25,8.79Z" transform="translate(-158.92 -44.7)"/>
    <path class="cls-1" d="M556.46,181.58,528.15,44.7h39.64l11.12,76.58q.12,1.22.3,5.84t.39,12.48q2.82-6.25,5.21-11.31c1.58-3.37,2.73-5.7,3.45-7L631.74,44.7h39.64l-86.5,136.88Z" transform="translate(-158.92 -44.7)"/>
  </g>
  <path class="cls-1" d="M158.92,162.38A18.23,18.23,0,0,1,164.3,149a18,18,0,0,1,13.32-5.42A18.43,18.43,0,0,1,191.18,149a19,19,0,0,1-13.56,32.35,17.92,17.92,0,0,1-13.28-5.52A18.47,18.47,0,0,1,158.92,162.38Z" transform="translate(-158.92 -44.7)"/>
</svg>
